<svg width="16" height="16" viewBox="0 0 16 16" fill="none" xmlns="http://www.w3.org/2000/svg">
<path d="M12.9401 8.66732C12.7934 8.66732 12.6401 8.62065 12.4934 8.58732C12.1967 8.52096 11.9049 8.43408 11.6201 8.32732C11.3108 8.2148 10.9709 8.22065 10.6657 8.34372C10.3604 8.4668 10.1115 8.69841 9.96678 8.99398L9.82011 9.30065C9.17266 8.93345 8.57453 8.48542 8.04011 7.96732C7.52202 7.4329 7.07398 6.83477 6.70678 6.18732L7.01345 6.04732C7.30903 5.9026 7.54064 5.65367 7.66371 5.34845C7.78679 5.04322 7.79263 4.70326 7.68011 4.39398C7.57424 4.10667 7.48739 3.8127 7.42011 3.51398C7.38678 3.36732 7.36011 3.21398 7.34011 3.06732C7.25916 2.59773 7.0132 2.17248 6.64653 1.86814C6.27986 1.56381 5.81658 1.40039 5.34012 1.40732H3.33345C3.05161 1.40695 2.77288 1.46615 2.51553 1.58104C2.25817 1.69593 2.028 1.86392 1.84011 2.07398C1.64833 2.28975 1.50552 2.54448 1.42152 2.82067C1.33751 3.09687 1.31429 3.38797 1.35345 3.67398C1.71584 6.44874 2.98359 9.02642 4.96011 11.0073C6.94101 12.9838 9.51869 14.2516 12.2934 14.614C12.38 14.6206 12.4669 14.6206 12.5534 14.614C13.0451 14.6147 13.5197 14.4343 13.8868 14.1073C14.0968 13.9194 14.2648 13.6893 14.3797 13.4319C14.4946 13.1746 14.5538 12.8958 14.5534 12.614V10.614C14.5499 10.1533 14.3874 9.70806 14.0934 9.35338C13.7995 8.9987 13.3921 8.75636 12.9401 8.66732ZM13.2668 12.6673C13.2666 12.7603 13.2469 12.8523 13.209 12.9373C13.1711 13.0222 13.1158 13.0983 13.0468 13.1607C12.9737 13.2272 12.8868 13.2767 12.7922 13.3055C12.6977 13.3344 12.5979 13.3418 12.5001 13.3273C10.0123 13.0024 7.70028 11.8686 5.92011 10.1007C4.13843 8.31896 2.9948 5.9989 2.66678 3.50065C2.6523 3.40287 2.65974 3.3031 2.68856 3.20855C2.71739 3.11401 2.76688 3.02705 2.83345 2.95398C2.89653 2.88409 2.9737 2.82834 3.05988 2.79042C3.14606 2.7525 3.2393 2.73327 3.33345 2.73398H5.33345C5.48756 2.73022 5.63821 2.77997 5.75976 2.87478C5.88131 2.96959 5.96625 3.1036 6.00011 3.25398C6.00011 3.43398 6.06011 3.62065 6.10011 3.80065C6.17717 4.14989 6.27966 4.49303 6.40678 4.82732L5.47345 5.26732C5.31302 5.34096 5.18835 5.47522 5.12678 5.64065C5.0601 5.80296 5.0601 5.98501 5.12678 6.14732C6.08625 8.20249 7.73828 9.85452 9.79345 10.814C9.95576 10.8807 10.1378 10.8807 10.3001 10.814C10.4655 10.7524 10.5998 10.6277 10.6734 10.4673L11.0934 9.53399C11.4374 9.6594 11.7893 9.76185 12.1468 9.84065C12.3201 9.88065 12.5068 9.91398 12.6868 9.94065C12.8372 9.97452 12.9712 10.0595 13.066 10.181C13.1608 10.3026 13.2105 10.4532 13.2068 10.6073L13.2668 12.6673ZM9.33345 1.33398C9.18011 1.33398 9.02011 1.33398 8.86678 1.33398C8.68997 1.34901 8.52637 1.43366 8.41197 1.56932C8.29758 1.70497 8.24175 1.88051 8.25678 2.05732C8.27181 2.23413 8.35646 2.39773 8.49211 2.51213C8.62776 2.62652 8.8033 2.68235 8.98011 2.66732H9.33345C10.3943 2.66732 11.4117 3.08875 12.1619 3.83889C12.912 4.58904 13.3334 5.60645 13.3334 6.66732C13.3334 6.78732 13.3334 6.90065 13.3334 7.02065C13.3187 7.19652 13.3742 7.37108 13.488 7.50605C13.6017 7.64102 13.7643 7.72539 13.9401 7.74065H13.9934C14.1603 7.74133 14.3214 7.67939 14.4448 7.56706C14.5683 7.45474 14.6451 7.3002 14.6601 7.13398C14.6601 6.98065 14.6601 6.82065 14.6601 6.66732C14.6601 5.25398 14.0991 3.89844 13.1004 2.89844C12.1016 1.89843 10.7468 1.33575 9.33345 1.33398ZM10.6668 6.66732C10.6668 6.84413 10.737 7.0137 10.862 7.13872C10.9871 7.26375 11.1566 7.33398 11.3334 7.33398C11.5103 7.33398 11.6798 7.26375 11.8049 7.13872C11.9299 7.0137 12.0001 6.84413 12.0001 6.66732C12.0001 5.96007 11.7192 5.2818 11.2191 4.7817C10.719 4.2816 10.0407 4.00065 9.33345 4.00065C9.15664 4.00065 8.98707 4.07089 8.86204 4.19591C8.73702 4.32094 8.66678 4.49051 8.66678 4.66732C8.66678 4.84413 8.73702 5.0137 8.86204 5.13872C8.98707 5.26375 9.15664 5.33398 9.33345 5.33398C9.68707 5.33398 10.0262 5.47446 10.2763 5.72451C10.5263 5.97456 10.6668 6.3137 10.6668 6.66732Z" fill="white"/>
</svg>
