<svg width="61" height="62" viewBox="0 0 61 62" fill="none" xmlns="http://www.w3.org/2000/svg">
<path d="M45.0475 20.1362H59.6575C60.3271 20.1362 60.875 19.5884 60.875 18.9187V4.30875C60.875 3.63912 60.3271 3.09125 59.6575 3.09125H45.0475C44.3779 3.09125 43.83 3.63912 43.83 4.30875V10.3962H36.4032C35.9162 8.00995 34.0413 6.135 31.655 5.648V1.87375C31.655 1.20412 31.1071 0.65625 30.4375 0.65625C29.7679 0.65625 29.22 1.20412 29.22 1.87375V5.648C26.4441 6.20805 24.35 8.6674 24.35 11.6137C24.35 14.5601 26.4441 17.0073 29.22 17.5795V25.128C26.8337 25.615 24.9587 27.49 24.4718 29.8762H17.045V23.7887C17.045 23.1191 16.4971 22.5712 15.8275 22.5712H1.2175C0.547875 22.5712 0 23.1191 0 23.7887V38.3988C0 39.0684 0.547875 39.6162 1.2175 39.6162H15.8275C16.4971 39.6162 17.045 39.0684 17.045 38.3988V32.3112H24.4718C24.9587 34.6975 26.8337 36.5725 29.22 37.0595V44.608C26.4441 45.168 24.35 47.6274 24.35 50.5737C24.35 53.5201 26.4441 55.9673 29.22 56.5395V60.3137C29.22 60.9834 29.7679 61.5312 30.4375 61.5312C31.1071 61.5312 31.655 60.9834 31.655 60.3137V56.5395C34.0413 56.0525 35.9162 54.1775 36.4032 51.7912H43.83V57.8787C43.83 58.5484 44.3779 59.0962 45.0475 59.0962H59.6575C60.3271 59.0962 60.875 58.5484 60.875 57.8787V43.2687C60.875 42.5991 60.3271 42.0513 59.6575 42.0513H45.0475C44.3779 42.0513 43.83 42.5991 43.83 43.2687V49.3562H36.4032C35.9162 46.9699 34.0413 45.095 31.655 44.608V37.0595C34.4309 36.4995 36.525 34.0401 36.525 31.0938C36.525 28.1474 34.4309 25.7002 31.655 25.128V17.5795C34.0413 17.0925 35.9162 15.2175 36.4032 12.8312H43.83V18.9187C43.83 19.5884 44.3779 20.1362 45.0475 20.1362Z" fill="white"/>
</svg>
