<svg width="24" height="24" viewBox="0 0 24 24" fill="none" xmlns="http://www.w3.org/2000/svg">
<rect width="24" height="24" rx="2" fill="#F79901"/>
<g clip-path="url(#clip0_312_1024)">
<path d="M12 18.6663C12 18.6663 17 14.6663 17 10.333C17 7.57157 14.7614 5.33301 12 5.33301C9.23857 5.33301 7 7.57157 7 10.333C7 14.6663 12 18.6663 12 18.6663Z" stroke="white" stroke-width="1.5" stroke-linejoin="round"/>
<path d="M12 12.333C13.1046 12.333 14 11.4376 14 10.333C14 9.22844 13.1046 8.33301 12 8.33301C10.8954 8.33301 10 9.22844 10 10.333C10 11.4376 10.8954 12.333 12 12.333Z" stroke="white" stroke-width="1.5" stroke-linejoin="round"/>
</g>
<defs>
<clipPath id="clip0_312_1024">
<rect width="16" height="16" fill="white" transform="translate(4 4)"/>
</clipPath>
</defs>
</svg>
