<svg width="17" height="16" viewBox="0 0 17 16" fill="none" xmlns="http://www.w3.org/2000/svg">
<path d="M13.0304 7.55043L4.98036 1.26293C4.95932 1.24637 4.93404 1.23608 4.90742 1.23324C4.8808 1.2304 4.85392 1.23512 4.82987 1.24687C4.80581 1.25862 4.78556 1.27692 4.77143 1.29966C4.7573 1.3224 4.74987 1.34866 4.75 1.37543V2.75579C4.75 2.84329 4.79107 2.92722 4.85893 2.98079L11.2875 8.00043L4.85893 13.0201C4.78929 13.0736 4.75 13.1576 4.75 13.2451V14.6254C4.75 14.7451 4.8875 14.8111 4.98036 14.7379L13.0304 8.45043C13.0988 8.39706 13.1541 8.32879 13.1922 8.25082C13.2303 8.17284 13.2501 8.08721 13.2501 8.00043C13.2501 7.91366 13.2303 7.82803 13.1922 7.75005C13.1541 7.67207 13.0988 7.6038 13.0304 7.55043Z" fill="white"/>
</svg>
