<svg width="161" height="161" viewBox="0 0 161 161" fill="none" xmlns="http://www.w3.org/2000/svg">
<g filter="url(#filter0_d_312_952)">
<rect x="30.1348" y="10.6562" width="100" height="100" rx="5" fill="#F79901"/>
</g>
<path d="M110.169 89.3192L99.5652 58.7488C99.4697 58.3667 99.0875 58.1756 98.7054 58.0801C98.3233 58.0801 97.9411 58.2711 97.7501 58.6533L84.3755 87.7907L64.8869 61.9014C64.6959 61.6148 64.4093 61.5192 64.0271 61.5192C63.7405 61.5192 63.4539 61.7103 63.2629 61.9969L49.2196 89.2236C48.933 89.8924 49.4107 90.6566 50.0794 90.6566C63.7405 90.6566 97.6545 90.6566 109.31 90.6566C109.978 90.6566 110.456 89.9879 110.169 89.3192Z" fill="#FDFDFE"/>
<path d="M89.3436 72.4097L80.5546 55.2138C80.3635 54.8317 79.9814 54.6406 79.5993 54.6406C79.2171 54.6406 78.9305 54.9272 78.7395 55.3094L73.3896 70.1169L83.8982 84.0646L89.3436 72.4097Z" fill="#FDFDFE"/>
<path d="M79.5035 52.7299H79.5991C79.9812 52.7299 80.3633 52.8254 80.6499 52.9209V45.3739C83.6114 46.9024 86.3818 45.756 89.3434 44.4186C92.4959 42.9856 94.9798 41.9347 97.5591 44.2275C97.8457 44.5141 98.2279 44.5141 98.61 44.4186C98.9921 44.2275 99.1832 43.9409 99.1832 43.5588V32.1904C99.1832 31.9038 99.0877 31.7128 98.8966 31.5217C95.6485 28.5602 92.4959 29.611 88.5791 31.3306C85.4265 32.7636 82.9427 33.8145 80.3633 31.5217C80.2678 31.5217 78.7393 30.5664 78.7393 32.1904C78.7393 44.2275 78.7393 50.1505 78.7393 52.9209C79.0259 52.8254 79.2169 52.8254 79.5035 52.7299Z" fill="#FDFDFE"/>
<defs>
<filter id="filter0_d_312_952" x="0.134766" y="0.65625" width="160" height="160" filterUnits="userSpaceOnUse" color-interpolation-filters="sRGB">
<feFlood flood-opacity="0" result="BackgroundImageFix"/>
<feColorMatrix in="SourceAlpha" type="matrix" values="0 0 0 0 0 0 0 0 0 0 0 0 0 0 0 0 0 0 127 0" result="hardAlpha"/>
<feOffset dy="20"/>
<feGaussianBlur stdDeviation="15"/>
<feColorMatrix type="matrix" values="0 0 0 0 1 0 0 0 0 0.55006 0 0 0 0 0.296969 0 0 0 0.4 0"/>
<feBlend mode="normal" in2="BackgroundImageFix" result="effect1_dropShadow_312_952"/>
<feBlend mode="normal" in="SourceGraphic" in2="effect1_dropShadow_312_952" result="shape"/>
</filter>
</defs>
</svg>
