<svg width="144" height="103" viewBox="0 0 144 103" fill="none" xmlns="http://www.w3.org/2000/svg">
<g filter="url(#filter0_d_312_962)">
<path fill-rule="evenodd" clip-rule="evenodd" d="M101.528 44.5566C103.746 44.5566 105.292 42.8756 105.292 41.1057C105.292 39.3357 103.746 37.6548 101.528 37.6548C99.3095 37.6548 97.7632 39.3357 97.7632 41.1057C97.7632 42.8756 99.3095 44.5566 101.528 44.5566ZM101.528 47.6937C105.34 47.6937 108.43 44.7442 108.43 41.1057C108.43 37.4672 105.34 34.5176 101.528 34.5176C97.716 34.5176 94.626 37.4672 94.626 41.1057C94.626 44.7442 97.716 47.6937 101.528 47.6937Z" fill="#F79901"/>
<path fill-rule="evenodd" clip-rule="evenodd" d="M58.2348 44.5566C60.4531 44.5566 61.9994 42.8756 61.9994 41.1057C61.9994 39.3357 60.4531 37.6548 58.2348 37.6548C56.0165 37.6548 54.4702 39.3357 54.4702 41.1057C54.4702 42.8756 56.0165 44.5566 58.2348 44.5566ZM58.2348 47.6937C62.0466 47.6937 65.1366 44.7442 65.1366 41.1057C65.1366 37.4672 62.0466 34.5176 58.2348 34.5176C54.423 34.5176 51.333 37.4672 51.333 41.1057C51.333 44.7442 54.423 47.6937 58.2348 47.6937Z" fill="#F79901"/>
<path fill-rule="evenodd" clip-rule="evenodd" d="M47.3582 5.65625C46.0571 5.65625 44.9717 6.65057 44.858 7.94668L44.5636 11.3032H51.3333C52.0263 11.3032 52.5882 11.865 52.5882 12.5581C52.5882 13.2511 52.0263 13.8129 51.3333 13.8129H44.3435L44.1233 16.3227H48.8235C49.5166 16.3227 50.0784 16.8845 50.0784 17.5775C50.0784 18.2706 49.5166 18.8324 48.8235 18.8324H43.9031L43.683 21.3422H51.9607C52.6538 21.3422 53.2156 21.904 53.2156 22.597C53.2156 23.2901 52.6538 23.8519 51.9607 23.8519H43.4628L43.2427 26.3617H49.451C50.144 26.3617 50.7059 26.9235 50.7059 27.6165C50.7059 28.3096 50.144 28.8714 49.451 28.8714H43.0225L42.1612 38.6911C42.0325 40.1581 43.1887 41.4201 44.6613 41.4201H50.0784C50.0784 36.9153 53.7303 33.2635 58.2351 33.2635C62.7399 33.2635 66.3918 36.9153 66.3918 41.4201H87.327H87.9749H93.3715C93.3715 36.9153 97.0234 33.2635 101.528 33.2635C106.033 33.2635 109.685 36.9153 109.685 41.4201H110.509C111.816 41.4201 112.904 40.4172 113.01 39.1146L113.992 27.0909C114.046 26.4234 113.832 25.7619 113.396 25.2534L105.417 15.9442C104.94 15.3879 104.244 15.0678 103.511 15.0678H94.25C93.8193 15.0678 93.405 14.9575 93.041 14.7574L93.7071 8.42873C93.8631 6.94688 92.7012 5.65625 91.2112 5.65625H47.3582ZM95.2316 17.2398C95.2441 17.0763 95.3804 16.9501 95.5444 16.9501H102.234C102.584 16.9501 102.918 17.0965 103.156 17.3538L109.826 24.5803C110.012 24.7812 109.869 25.1068 109.596 25.1068H94.9652C94.7824 25.1068 94.6384 24.9512 94.6524 24.769L95.2316 17.2398ZM63.9399 17.8637L64.1808 16.5234H58.0219L56.1697 26.9891H57.8864L58.6996 22.3661H62.163L62.4039 21.041H58.9405L59.4977 17.8637H63.9399ZM71.7801 17.2312C71.238 16.7594 70.4399 16.5234 69.3858 16.5234H65.7717L63.9196 26.9891H65.6362L66.3741 22.8028H67.6992L69.3557 26.9891H71.4036L69.5815 22.6522C70.4348 22.4515 71.1075 22.07 71.5994 21.5078C72.1013 20.9456 72.4125 20.3282 72.533 19.6556C72.5732 19.3946 72.5932 19.1988 72.5932 19.0683C72.5932 18.3154 72.3222 17.703 71.7801 17.2312ZM70.8163 19.2189C70.8163 19.3595 70.8013 19.505 70.7712 19.6556C70.6808 20.2078 70.4399 20.6445 70.0483 20.9657C69.6669 21.2869 69.1549 21.4476 68.5124 21.4476H66.615L67.2475 17.8637H69.1448C69.707 17.8637 70.1236 17.9841 70.3947 18.2251C70.6758 18.456 70.8163 18.7872 70.8163 19.2189ZM76.2048 21.0259L76.762 17.8486H80.8277L81.0687 16.5084H75.2862L73.434 26.9891H79.2165L79.4574 25.6489H75.3916L75.9789 22.3511H79.593L79.8188 21.0259H76.2048ZM84.1017 21.0259L84.6588 17.8486H88.7246L88.9656 16.5084H83.1831L81.3309 26.9891H87.1134L87.3543 25.6489H83.2885L83.8758 22.3511H87.4898L87.7157 21.0259H84.1017Z" fill="#F79901"/>
<path fill-rule="evenodd" clip-rule="evenodd" d="M38.7841 8.79297C38.0911 8.79297 37.5292 9.3548 37.5292 10.0478C37.5292 10.7409 38.0911 11.3027 38.7841 11.3027H53.8426C54.5356 11.3027 55.0975 10.7409 55.0975 10.0478C55.0975 9.3548 54.5356 8.79297 53.8426 8.79297H38.7841ZM33.7646 13.8125C33.0716 13.8125 32.5097 14.3743 32.5097 15.0673C32.5097 15.7604 33.0716 16.3222 33.7646 16.3222H53.8426C54.5356 16.3222 55.0975 15.7604 55.0975 15.0673C55.0975 14.3743 54.5356 13.8125 53.8426 13.8125H33.7646ZM35.0195 20.0868C35.0195 19.3938 35.5813 18.832 36.2744 18.832H53.8426C54.5356 18.832 55.0975 19.3938 55.0975 20.0868C55.0975 20.7799 54.5356 21.3417 53.8426 21.3417H36.2744C35.5813 21.3417 35.0195 20.7799 35.0195 20.0868ZM31.2549 23.8514C30.5618 23.8514 30 24.4133 30 25.1063C30 25.7994 30.5618 26.3612 31.2549 26.3612H53.8426C54.5356 26.3612 55.0975 25.7994 55.0975 25.1063C55.0975 24.4133 54.5356 23.8514 53.8426 23.8514H31.2549Z" fill="#F79901"/>
</g>
<defs>
<filter id="filter0_d_312_962" x="0" y="0.65625" width="144" height="102.037" filterUnits="userSpaceOnUse" color-interpolation-filters="sRGB">
<feFlood flood-opacity="0" result="BackgroundImageFix"/>
<feColorMatrix in="SourceAlpha" type="matrix" values="0 0 0 0 0 0 0 0 0 0 0 0 0 0 0 0 0 0 127 0" result="hardAlpha"/>
<feOffset dy="25"/>
<feGaussianBlur stdDeviation="15"/>
<feColorMatrix type="matrix" values="0 0 0 0 0.972549 0 0 0 0 0.603451 0 0 0 0 0.262745 0 0 0 0.1 0"/>
<feBlend mode="normal" in2="BackgroundImageFix" result="effect1_dropShadow_312_962"/>
<feBlend mode="normal" in="SourceGraphic" in2="effect1_dropShadow_312_962" result="shape"/>
</filter>
</defs>
</svg>
