<svg width="160" height="160" viewBox="0 0 160 160" fill="none" xmlns="http://www.w3.org/2000/svg">
<g filter="url(#filter0_d_312_974)">
<rect x="30" y="10" width="100" height="100" rx="5" fill="#F79901"/>
</g>
<path d="M90.9241 55.968C91.824 58.0249 92.3382 60.2746 92.3382 62.7172C92.3382 71.909 84.882 79.3652 75.6902 79.3652C66.4984 79.3652 59.0421 71.909 59.0421 62.7172C59.0421 53.4611 66.4984 46.0049 75.6902 46.0049C78.0685 46.0049 80.3825 46.5191 82.4394 47.419L86.4889 42.5981C83.275 40.8626 79.6112 39.8984 75.7545 39.8984C63.2202 39.8984 53 50.1187 53 62.6529C53 70.6877 57.2424 77.8226 63.5416 81.8078L60.0063 88.0428C59.6849 88.6213 59.6849 89.3926 60.0063 90.0354C60.3277 90.6139 61.0348 90.9996 61.6776 90.9996H89.7028C90.4099 90.9996 91.0527 90.6139 91.3741 90.0354C91.6955 89.4569 91.7597 88.6856 91.3741 88.0428L87.8388 81.8078C94.2023 77.7583 98.3804 70.6877 98.3804 62.6529C98.3804 58.7962 97.4162 55.1324 95.6807 51.9185L90.9241 55.968Z" fill="white"/>
<path d="M78.9682 51.5338C77.9398 51.2124 76.7827 51.0195 75.69 51.0195C69.2622 51.0195 64.0557 56.2261 64.0557 62.6539C64.0557 69.0174 69.2622 74.2882 75.69 74.2882C82.0536 74.2882 87.3244 69.0817 87.3244 62.6539C87.3244 61.4969 87.1315 60.4041 86.8744 59.3757L78.9682 65.9321C77.0399 67.539 74.0831 67.2819 72.4761 65.3536C70.9977 63.6181 71.062 61.1112 72.4761 59.44L78.9682 51.5338Z" fill="white"/>
<path d="M108.28 37.5205C108.151 37.1349 107.765 36.8778 107.315 36.8778H101.466V31.0285C101.466 30.6428 101.209 30.2571 100.823 30.0643C100.438 29.9357 99.9877 30 99.7305 30.2571L92.7242 37.2634C92.5314 37.4563 92.4028 37.7134 92.4028 37.9705V41.8915L74.4049 61.3678C73.7622 62.0748 73.7622 63.1675 74.4049 63.8746C75.112 64.6459 76.269 64.6459 76.9761 63.9389L96.3881 45.8767H100.309C100.566 45.8767 100.823 45.7482 101.016 45.5553L108.022 38.549C108.344 38.3562 108.408 37.9062 108.28 37.5205Z" fill="white"/>
<defs>
<filter id="filter0_d_312_974" x="0" y="0" width="160" height="160" filterUnits="userSpaceOnUse" color-interpolation-filters="sRGB">
<feFlood flood-opacity="0" result="BackgroundImageFix"/>
<feColorMatrix in="SourceAlpha" type="matrix" values="0 0 0 0 0 0 0 0 0 0 0 0 0 0 0 0 0 0 127 0" result="hardAlpha"/>
<feOffset dy="20"/>
<feGaussianBlur stdDeviation="15"/>
<feColorMatrix type="matrix" values="0 0 0 0 1 0 0 0 0 0.55006 0 0 0 0 0.296969 0 0 0 0.4 0"/>
<feBlend mode="normal" in2="BackgroundImageFix" result="effect1_dropShadow_312_974"/>
<feBlend mode="normal" in="SourceGraphic" in2="effect1_dropShadow_312_974" result="shape"/>
</filter>
</defs>
</svg>
