<svg width="30" height="30" viewBox="0 0 30 30" fill="none" xmlns="http://www.w3.org/2000/svg">
<path d="M21.025 19.3562C20.5689 19.127 20.0133 19.3048 19.775 19.7562C19.5548 20.2161 19.7368 20.7678 20.1875 21.0062C21.2875 21.5687 21.9125 22.2562 21.9125 22.9187C21.9125 24.3312 18.9625 25.9062 15.0125 25.9062C11.0625 25.9062 8.1 24.3437 8.1 22.9687C8.1 22.3187 8.725 21.6187 9.825 21.0562C10.1549 20.924 10.3816 20.6165 10.4105 20.2623C10.4394 19.9081 10.2655 19.568 9.96142 19.384C9.65735 19.2 9.27538 19.2038 8.975 19.3937C7.45737 19.9657 6.39935 21.3538 6.25 22.9687C6.25 25.7437 10 27.8312 15 27.8312C20 27.8312 23.75 25.7437 23.75 22.9687C23.6144 21.3398 22.5541 19.934 21.025 19.3562Z" fill="#8B8FA8"/>
<path fill-rule="evenodd" clip-rule="evenodd" d="M14.0625 23.5187V18.1187C9.94612 17.6228 6.92816 14.0066 7.17658 9.86791C7.425 5.7292 10.8538 2.5 15 2.5C19.1462 2.5 22.575 5.7292 22.8234 9.86791C23.0718 14.0066 20.0539 17.6228 15.9375 18.1187V23.5187C15.9375 24.0365 15.5178 24.4562 15 24.4562C14.4822 24.4562 14.0625 24.0365 14.0625 23.5187ZM20.5303 8.05141C19.6023 5.81758 17.4189 4.36367 15 4.36873C11.7099 4.3756 9.04438 7.04108 9.0375 10.3312C9.03245 12.7502 10.4864 14.9335 12.7202 15.8615C14.954 16.7895 17.527 16.2791 19.2375 14.5687C20.9479 12.8582 21.4583 10.2852 20.5303 8.05141Z" fill="#8B8FA8"/>
<path d="M11.9875 11.7187C12.5053 11.7187 12.925 11.299 12.925 10.7812C12.925 9.34529 14.0891 8.18123 15.525 8.18123C16.0428 8.18123 16.4625 7.76149 16.4625 7.24373C16.4625 6.72596 16.0428 6.30623 15.525 6.30623C14.3348 6.30954 13.1947 6.7855 12.3555 7.62942C11.5163 8.47333 11.0467 9.61607 11.05 10.8062C11.0533 11.0516 11.1539 11.2855 11.3297 11.4567C11.5056 11.6278 11.7422 11.7221 11.9875 11.7187Z" fill="#8B8FA8"/>
</svg>
