<svg width="30" height="30" viewBox="0 0 30 30" fill="none" xmlns="http://www.w3.org/2000/svg">
<path fill-rule="evenodd" clip-rule="evenodd" d="M16.6125 3.17864L25.175 9.19114C26.5062 10.1267 27.2989 11.6515 27.3 13.2786V22.1911C27.2967 23.6067 26.7312 24.963 25.7279 25.9617C24.7245 26.9603 23.3656 27.5195 21.95 27.5161H7.85C6.43441 27.5195 5.07547 26.9603 4.07215 25.9617C3.06883 24.963 2.50331 23.6067 2.5 22.1911V13.2786C2.50106 11.6515 3.29378 10.1267 4.625 9.19114L13.1875 3.17864C14.1499 2.27379 15.6501 2.27379 16.6125 3.17864ZM24.402 24.6358C25.0537 23.9888 25.4217 23.1095 25.425 22.1911V13.2786C25.4075 12.2816 24.9152 11.3529 24.1 10.7786L15.5375 4.76614L15.4 4.66614C15.2683 4.53177 15.0881 4.45604 14.9 4.45604C14.7119 4.45604 14.5317 4.53177 14.4 4.66614L14.2625 4.76614L5.7 10.7786C4.88477 11.3529 4.39251 12.2816 4.375 13.2786V22.1911C4.37831 23.1095 4.74628 23.9888 5.39798 24.6358C6.04967 25.2828 6.93169 25.6445 7.85 25.6411H21.95C22.8683 25.6445 23.7503 25.2828 24.402 24.6358Z" fill="#8B8FA8"/>
<path d="M22.4875 13.7661L15.5625 18.6036C15.3575 18.8087 15.076 18.9186 14.7863 18.9067C14.4966 18.8949 14.225 18.7623 14.0375 18.5411L7.3125 13.7661C7.04236 13.5325 6.66294 13.4727 6.334 13.6118C6.00507 13.7509 5.78376 14.0649 5.76327 14.4214C5.74278 14.778 5.92666 15.1152 6.2375 15.2911L12.8625 20.0161C13.4057 20.5219 14.1203 20.8032 14.8625 20.8036C15.5605 20.786 16.226 20.5046 16.725 20.0161L23.5625 15.2411C23.9556 14.9502 24.059 14.406 23.8 13.9911C23.4971 13.5708 22.9131 13.4707 22.4875 13.7661Z" fill="#8B8FA8"/>
</svg>
