<svg width="30" height="31" viewBox="0 0 30 31" fill="none" xmlns="http://www.w3.org/2000/svg">
<path fill-rule="evenodd" clip-rule="evenodd" d="M21.3306 15.629L26.199 20.4974C26.5265 20.8722 26.6405 21.3879 26.5017 21.8659L25.6069 24.9843C25.4691 25.4561 25.1032 25.827 24.6333 25.9711L21.4359 26.9316C20.9263 27.0698 20.3816 26.9299 20.0017 26.5632L15.1201 21.6816C14.4566 21.0187 13.558 20.6451 12.6201 20.6422C12.1686 20.6442 11.7218 20.7336 11.3043 20.9053C10.8852 21.0701 10.4389 21.1549 9.98852 21.1553C9.04948 21.1582 8.14867 20.7837 7.48852 20.1159L3.54115 16.1685C2.64444 15.2749 2.29324 13.9704 2.6201 12.7474L4.15957 7.05006C4.47242 5.8138 5.42836 4.84277 6.65957 4.51059L12.4096 3.05006C12.7104 2.9719 13.0198 2.93211 13.3306 2.93164C14.2685 2.93455 15.1672 3.30821 15.8306 3.97111L19.778 7.91848C20.7893 8.9301 21.0953 10.4496 20.5543 11.7737C20.0133 13.0979 20.3193 14.6174 21.3306 15.629ZM21.2254 24.9974L23.8569 24.2211L24.5806 21.6422L19.9359 16.9974C18.3552 15.4262 17.882 13.055 18.7385 10.9974C18.9646 10.4046 18.8202 9.73416 18.3701 9.2869L14.4227 5.33954C14.1324 5.04189 13.7332 4.87557 13.3175 4.87901C13.1822 4.85902 13.0448 4.85902 12.9096 4.87901L7.17274 6.41848C6.63362 6.56352 6.21251 6.98463 6.06747 7.52375L4.528 13.3132C4.38361 13.8543 4.53913 14.4312 4.93589 14.8264L8.88326 18.7737C9.17358 19.0714 9.57276 19.2377 9.98852 19.2343C10.1904 19.2323 10.3905 19.1968 10.5806 19.129C11.2306 18.857 11.9286 18.7183 12.6333 18.7211C14.1138 18.7045 15.5379 19.2884 16.5806 20.3395L21.2254 24.9974Z" fill="#8B8FA8"/>
<path d="M12.8701 9.14217L8.79115 13.2211C8.40635 13.6064 8.40635 14.2306 8.79115 14.6159C9.17644 15.0007 9.8006 15.0007 10.1859 14.6159L14.2648 10.5369C14.4529 10.3536 14.559 10.1022 14.559 9.83954C14.559 9.57692 14.4529 9.32544 14.2648 9.14217C13.8796 8.75736 13.2554 8.75736 12.8701 9.14217Z" fill="#8B8FA8"/>
</svg>
