<svg width="397" height="402" viewBox="0 0 397 402" fill="none" xmlns="http://www.w3.org/2000/svg">
<mask id="mask0_350_847" style="mask-type:alpha" maskUnits="userSpaceOnUse" x="52" y="57" width="313" height="293">
<path fill-rule="evenodd" clip-rule="evenodd" d="M272.104 71.1101C315.072 91.1534 358.284 123.21 364.014 170.243C369.565 215.813 329.514 249.882 297.941 283.188C268.093 314.674 237.135 349.249 193.723 349.881C147.166 350.558 103.527 324.721 77.0732 286.401C51.0368 248.685 45.9804 200.284 60.4633 156.843C74.2313 115.546 108.842 86.3933 149.205 70.0428C189.137 53.8666 233.033 52.8851 272.104 71.1101Z" fill="url(#paint0_linear_350_847)"/>
</mask>
<g mask="url(#mask0_350_847)">
<path fill-rule="evenodd" clip-rule="evenodd" d="M211.833 50.1373C268.725 44.1409 333.339 50.4152 368.511 95.4819C402.589 139.147 382.363 199.28 370.429 253.351C359.147 304.467 348.639 359.468 304.145 387.117C256.428 416.769 195.239 417.192 144.058 394.021C93.6836 371.215 58.3573 324.315 46.318 270.392C34.8729 219.131 52.5304 167.465 84.0963 125.459C115.326 83.9012 160.102 55.5897 211.833 50.1373Z" fill="#BDBDBD" fill-opacity="0.5"/>
<path fill-rule="evenodd" clip-rule="evenodd" d="M211.833 50.1373C268.725 44.1409 333.339 50.4152 368.511 95.4819C402.589 139.147 382.363 199.28 370.429 253.351C359.147 304.467 348.639 359.468 304.145 387.117C256.428 416.769 195.239 417.192 144.058 394.021C93.6836 371.215 58.3573 324.315 46.318 270.392C34.8729 219.131 52.5304 167.465 84.0963 125.459C115.326 83.9012 160.102 55.5897 211.833 50.1373Z" fill="#BABABA" fill-opacity="0.5"/>
<path fill-rule="evenodd" clip-rule="evenodd" d="M211.833 50.1373C268.725 44.1409 333.339 50.4152 368.511 95.4819C402.589 139.147 382.363 199.28 370.429 253.351C359.147 304.467 348.639 359.468 304.145 387.117C256.428 416.769 195.239 417.192 144.058 394.021C93.6836 371.215 58.3573 324.315 46.318 270.392C34.8729 219.131 52.5304 167.465 84.0963 125.459C115.326 83.9012 160.102 55.5897 211.833 50.1373Z" fill="url(#paint1_radial_350_847)" fill-opacity="0.7"/>
</g>
<defs>
<linearGradient id="paint0_linear_350_847" x1="270.873" y1="69.6417" x2="126.059" y2="331.771" gradientUnits="userSpaceOnUse">
<stop stop-color="#FDAB01" stop-opacity="0.3"/>
<stop offset="1" stop-color="#FDAB01" stop-opacity="0"/>
</linearGradient>
<radialGradient id="paint1_radial_350_847" cx="0" cy="0" r="1" gradientUnits="userSpaceOnUse" gradientTransform="translate(340.494 100.104) rotate(124.827) scale(382.609 694.882)">
<stop stop-color="#FDAB01"/>
<stop offset="1" stop-color="#FDAB01" stop-opacity="0"/>
</radialGradient>
</defs>
</svg>
