<svg width="397" height="402" viewBox="0 0 397 402" fill="none" xmlns="http://www.w3.org/2000/svg">
<mask id="mask0_314_1239" style="mask-type:alpha" maskUnits="userSpaceOnUse" x="52" y="57" width="313" height="293">
<path fill-rule="evenodd" clip-rule="evenodd" d="M272.104 71.1101C315.072 91.1534 358.284 123.21 364.014 170.243C369.565 215.813 329.514 249.882 297.941 283.188C268.093 314.674 237.135 349.249 193.723 349.881C147.166 350.558 103.527 324.721 77.0732 286.401C51.0368 248.685 45.9804 200.284 60.4633 156.843C74.2313 115.546 108.842 86.3933 149.205 70.0428C189.137 53.8666 233.033 52.8851 272.104 71.1101Z" fill="url(#paint0_linear_314_1239)"/>
</mask>
<g mask="url(#mask0_314_1239)">
<path fill-rule="evenodd" clip-rule="evenodd" d="M272.104 71.1101C315.072 91.1534 358.284 123.21 364.014 170.243C369.565 215.813 329.514 249.882 297.941 283.188C268.093 314.674 237.135 349.249 193.723 349.881C147.166 350.558 103.527 324.721 77.0732 286.401C51.0368 248.685 45.9804 200.284 60.4633 156.843C74.2313 115.546 108.842 86.3933 149.205 70.0428C189.137 53.8666 233.033 52.8851 272.104 71.1101Z" fill="#BDBDBD"/>
<path fill-rule="evenodd" clip-rule="evenodd" d="M272.104 71.1101C315.072 91.1534 358.284 123.21 364.014 170.243C369.565 215.813 329.514 249.882 297.941 283.188C268.093 314.674 237.135 349.249 193.723 349.881C147.166 350.558 103.527 324.721 77.0732 286.401C51.0368 248.685 45.9804 200.284 60.4633 156.843C74.2313 115.546 108.842 86.3933 149.205 70.0428C189.137 53.8666 233.033 52.8851 272.104 71.1101Z" fill="#BABABA"/>
<path fill-rule="evenodd" clip-rule="evenodd" d="M272.104 71.1101C315.072 91.1534 358.284 123.21 364.014 170.243C369.565 215.813 329.514 249.882 297.941 283.188C268.093 314.674 237.135 349.249 193.723 349.881C147.166 350.558 103.527 324.721 77.0732 286.401C51.0368 248.685 45.9804 200.284 60.4633 156.843C74.2313 115.546 108.842 86.3933 149.205 70.0428C189.137 53.8666 233.033 52.8851 272.104 71.1101Z" fill="url(#paint1_radial_314_1239)"/>
</g>
<defs>
<linearGradient id="paint0_linear_314_1239" x1="270.873" y1="69.6417" x2="126.059" y2="331.771" gradientUnits="userSpaceOnUse">
<stop stop-color="#FDAB01" stop-opacity="0.3"/>
<stop offset="1" stop-color="#FDAB01" stop-opacity="0"/>
</linearGradient>
<radialGradient id="paint1_radial_314_1239" cx="0" cy="0" r="1" gradientUnits="userSpaceOnUse" gradientTransform="translate(342.141 161.558) rotate(155.851) scale(317.107 575.921)">
<stop stop-color="#4248D3"/>
<stop offset="0.472222" stop-color="#330BA6"/>
<stop offset="1" stop-color="#6F4B00"/>
</radialGradient>
</defs>
</svg>
