<svg width="16" height="16" viewBox="0 0 16 16" fill="none" xmlns="http://www.w3.org/2000/svg">
<path d="M13.4733 5.88002L9.33333 1.85335C8.98264 1.51992 8.51724 1.33398 8.03333 1.33398C7.54943 1.33398 7.08403 1.51992 6.73333 1.85335L2.59333 5.85335C2.40939 6.01393 2.26144 6.21156 2.15919 6.43329C2.05694 6.65502 2.00269 6.89586 2 7.14002V12.86C2.00703 13.3451 2.20603 13.8076 2.55341 14.1462C2.90079 14.4849 3.36824 14.672 3.85333 14.6667H12.1467C12.6318 14.672 13.0992 14.4849 13.4466 14.1462C13.794 13.8076 13.993 13.3451 14 12.86V7.14002C13.9995 6.90567 13.9527 6.67372 13.8623 6.4575C13.7719 6.24128 13.6397 6.04503 13.4733 5.88002ZM7.62667 2.81335C7.72865 2.72012 7.86183 2.66843 8 2.66843C8.13817 2.66843 8.27135 2.72012 8.37333 2.81335L12 6.33335L8.35333 9.85335C8.25135 9.94658 8.11817 9.99827 7.98 9.99827C7.84183 9.99827 7.70865 9.94658 7.60667 9.85335L4 6.33335L7.62667 2.81335ZM12.6667 12.86C12.6581 12.9909 12.5991 13.1133 12.5021 13.2016C12.4052 13.2898 12.2777 13.3371 12.1467 13.3334H3.85333C3.72225 13.3371 3.59483 13.2898 3.49786 13.2016C3.40088 13.1133 3.34191 12.9909 3.33333 12.86V7.56668L6.03333 10.1667L4.92667 11.2334C4.8025 11.3583 4.73281 11.5272 4.73281 11.7034C4.73281 11.8795 4.8025 12.0484 4.92667 12.1734C4.98863 12.2384 5.06309 12.2902 5.14557 12.3257C5.22806 12.3612 5.31686 12.3797 5.40667 12.38C5.57831 12.3793 5.74308 12.3125 5.86667 12.1934L7.04667 11.06C7.33974 11.2391 7.67654 11.3339 8.02 11.3339C8.36346 11.3339 8.70026 11.2391 8.99333 11.06L10.1733 12.1934C10.2969 12.3125 10.4617 12.3793 10.6333 12.38C10.7231 12.3797 10.8119 12.3612 10.8944 12.3257C10.9769 12.2902 11.0514 12.2384 11.1133 12.1734C11.2375 12.0484 11.3072 11.8795 11.3072 11.7034C11.3072 11.5272 11.2375 11.3583 11.1133 11.2334L10 10.1667L12.6667 7.56668V12.86Z" fill="white"/>
</svg>
