<svg width="27" height="26" viewBox="0 0 27 26" fill="none" xmlns="http://www.w3.org/2000/svg">
<ellipse cx="13.5001" cy="12.8739" rx="12.6476" ry="12.203" fill="black"/>
<rect x="7.17676" y="6.3291" width="13.0428" height="12.5843" fill="white"/>
<path d="M5.54537 4.8767C5.80862 4.86141 6.07259 4.86141 6.33584 4.8767H21.2323C21.3087 4.86694 21.3863 4.87384 21.4595 4.89695C21.5327 4.92005 21.5996 4.95875 21.6552 5.01016C21.8528 5.20464 21.7817 5.49447 21.7935 5.73853C21.7935 10.6299 21.7935 15.5238 21.7935 20.4202C21.792 20.4874 21.7757 20.5534 21.7458 20.6141C21.7159 20.6748 21.673 20.7286 21.6201 20.7722C21.5671 20.8157 21.5051 20.8481 21.4383 20.8669C21.3715 20.8858 21.3013 20.8908 21.2323 20.8816H5.6837C5.61998 20.8843 5.55637 20.8742 5.49688 20.852C5.43739 20.8298 5.3833 20.796 5.33802 20.7526C5.29273 20.7093 5.25723 20.6574 5.23373 20.6002C5.21024 20.543 5.19927 20.4817 5.20151 20.4202V5.34192C5.19335 5.23781 5.22329 5.13422 5.28612 5.04921C5.34895 4.9642 5.44069 4.90317 5.54537 4.8767ZM8.94835 8.85789C8.94835 11.5273 8.94835 14.1967 8.94835 16.8661H12.0628C12.0628 15.5428 12.0431 14.1967 12.0628 12.8925C12.4027 13.3501 12.715 13.8306 13.0628 14.2844C13.6438 15.1538 14.2999 15.9737 14.8571 16.8584C15.9006 16.8851 16.944 16.8584 17.9914 16.8584C17.9914 16.7326 18.0111 16.6068 18.0111 16.4771C18.0111 13.9297 18.0111 11.3786 18.0111 8.85025C16.9756 8.85025 15.944 8.85025 14.9125 8.85025C14.9125 10.1811 14.9125 11.5196 14.9125 12.8429C13.952 11.5273 13.047 10.1735 12.0628 8.86934C11.0273 8.82739 9.97597 8.85789 8.94835 8.85789Z" fill="black"/>
<path d="M7.19432 5.62793H19.8087C20.1271 5.62793 20.4325 5.74997 20.6576 5.9672C20.8827 6.18442 21.0092 6.47904 21.0092 6.78625V18.9572C21.0092 19.1097 20.9781 19.2608 20.9176 19.4018C20.8571 19.5427 20.7684 19.6708 20.6566 19.7787C20.5447 19.8865 20.412 19.9721 20.2659 20.0305C20.1198 20.0889 19.9633 20.1189 19.8051 20.1189H7.19432C7.0362 20.1189 6.87962 20.0889 6.73353 20.0305C6.58745 19.9721 6.45471 19.8865 6.3429 19.7787C6.23109 19.6708 6.1424 19.5427 6.08189 19.4018C6.02138 19.2608 5.99023 19.1097 5.99023 18.9572V6.78625C5.99118 6.47872 6.11845 6.18412 6.34416 5.96699C6.56987 5.74986 6.87559 5.62793 7.19432 5.62793Z" fill="black"/>
<path d="M13.536 6.55957C9.60106 6.55957 6.42773 9.00896 6.42773 11.9825C6.42773 13.9127 7.74784 15.6028 9.72799 16.5678L9.05779 18.983C9.04515 19.0192 9.04321 19.058 9.05217 19.0952C9.06114 19.1324 9.08066 19.1665 9.10856 19.1936C9.14923 19.2282 9.20157 19.2474 9.2558 19.2475C9.30077 19.244 9.34343 19.2269 9.37766 19.1985L12.2616 17.3223C12.6873 17.379 13.1164 17.4084 13.5461 17.4104C17.476 17.4104 20.6544 14.961 20.6544 11.9825C20.6544 9.00406 17.4658 6.55957 13.536 6.55957Z" fill="white"/>
<path d="M8.91572 11.1256H8.13889C8.04261 11.1283 7.94752 11.1045 7.86472 11.057C7.82796 11.0348 7.79635 11.0055 7.77189 10.9709C7.74742 10.9364 7.73063 10.8973 7.72255 10.8562C7.72009 10.8301 7.72009 10.8039 7.72255 10.7778C7.72014 10.729 7.72996 10.6804 7.75117 10.636C7.77238 10.5917 7.80437 10.553 7.84441 10.5231C7.93292 10.4612 8.03976 10.4286 8.14905 10.43H10.4897C10.5867 10.4267 10.6825 10.4523 10.7639 10.5035C10.8015 10.5247 10.8338 10.5538 10.8584 10.5885C10.8829 10.6232 10.8992 10.6628 10.906 10.7043C10.9085 10.7288 10.9085 10.7534 10.906 10.7778C10.9084 10.8273 10.8986 10.8766 10.8775 10.9218C10.8563 10.9669 10.8243 11.0065 10.7842 11.0374C10.6978 11.0992 10.592 11.1304 10.4846 11.1256H9.73317V13.7024C9.73622 13.7573 9.72742 13.8122 9.70731 13.8636C9.68721 13.9151 9.65625 13.9619 9.61639 14.0012C9.57817 14.0388 9.53223 14.0682 9.48151 14.0876C9.43079 14.1071 9.37642 14.116 9.32191 14.1139C9.22655 14.1165 9.13322 14.0871 9.05789 14.0307C8.98617 13.9755 8.93749 13.8972 8.9208 13.8102C8.91578 13.7744 8.91578 13.7382 8.9208 13.7024L8.91572 11.1256Z" fill="black"/>
<path d="M11.13 10.6214C11.1523 10.5408 11.2048 10.471 11.2772 10.4254C11.3545 10.3832 11.4424 10.3628 11.5311 10.3667H11.724C11.8181 10.3634 11.9113 10.3855 11.9931 10.4304C12.0799 10.4866 12.1415 10.5723 12.1658 10.6704L13.1812 13.4382C13.2076 13.5105 13.2296 13.5841 13.2472 13.6587C13.249 13.6897 13.249 13.7208 13.2472 13.7518C13.249 13.7995 13.2398 13.847 13.2206 13.891C13.2013 13.935 13.1722 13.9745 13.1355 14.0065C13.1 14.0417 13.0573 14.0694 13.0101 14.088C12.9629 14.1065 12.9123 14.1155 12.8614 14.1143C12.783 14.1218 12.7044 14.1037 12.6381 14.0628C12.5718 14.0219 12.5216 13.9607 12.4958 13.889L12.2825 13.2864H10.9472L10.734 13.889C10.7087 13.9621 10.658 14.0245 10.5904 14.0656C10.5228 14.1067 10.4426 14.1239 10.3633 14.1143C10.2775 14.1165 10.1934 14.0905 10.1247 14.0408C10.0578 13.9894 10.0126 13.9163 9.99775 13.8351C9.99506 13.8074 9.99506 13.7795 9.99775 13.7518C9.98903 13.7031 9.98903 13.6535 9.99775 13.6048C9.99775 13.551 10.0333 13.4921 10.0536 13.4382L11.13 10.6214ZM11.6377 11.2632L11.1554 12.7328H12.115L11.6377 11.2632Z" fill="black"/>
<path d="M13.3637 10.7782C13.3586 10.6682 13.3987 10.5608 13.4754 10.4793C13.5144 10.4414 13.5612 10.4117 13.6128 10.3923C13.6644 10.3729 13.7197 10.3641 13.775 10.3666C13.8701 10.3655 13.9629 10.3948 14.039 10.4499C14.1095 10.5074 14.1564 10.5873 14.171 10.6752C14.176 10.7094 14.176 10.744 14.171 10.7782V13.355H15.5673C15.6641 13.3537 15.7592 13.3792 15.8415 13.4284C15.8784 13.4504 15.9102 13.4797 15.9347 13.5143C15.9592 13.5489 15.9758 13.588 15.9836 13.6293C15.9836 13.6293 15.9836 13.6783 15.9836 13.7028C15.986 13.7515 15.9762 13.8001 15.955 13.8445C15.9338 13.8888 15.9018 13.9276 15.8618 13.9575C15.7732 14.0194 15.6664 14.052 15.5571 14.0506H13.841C13.7317 14.0573 13.623 14.0299 13.5313 13.9722C13.4492 13.913 13.3945 13.825 13.379 13.7273C13.3752 13.6734 13.3752 13.6194 13.379 13.5656L13.3637 10.7782Z" fill="black"/>
<path d="M16.0752 10.7778C16.0722 10.6682 16.1121 10.5615 16.1869 10.479C16.263 10.4123 16.3606 10.3729 16.4633 10.3675C16.566 10.3622 16.6674 10.3912 16.7505 10.4496C16.8226 10.5065 16.8712 10.5864 16.8876 10.6749C16.8901 10.7091 16.8901 10.7436 16.8876 10.7778V11.978L18.1722 10.5475C18.2217 10.4987 18.2742 10.453 18.3296 10.4104C18.3817 10.3804 18.4415 10.3651 18.5022 10.3663C18.5909 10.3658 18.6777 10.3914 18.751 10.4398C18.7855 10.4622 18.815 10.4911 18.8377 10.5248C18.8604 10.5585 18.8758 10.5962 18.883 10.6357C18.8851 10.6454 18.8851 10.6555 18.883 10.6652C18.8805 10.6765 18.8805 10.6881 18.883 10.6994C18.8828 10.751 18.8688 10.8016 18.8424 10.8464C18.8154 10.8938 18.7831 10.9381 18.7459 10.9786L17.9031 11.8702L18.9185 13.3889V13.4378C18.9713 13.508 19.0124 13.5858 19.0404 13.6681V13.6926C19.0463 13.7494 19.0378 13.8067 19.0157 13.8596C18.9936 13.9125 18.9585 13.9594 18.9135 13.9963C18.8288 14.0581 18.7251 14.0909 18.619 14.0894C18.5484 14.0922 18.4784 14.077 18.4159 14.0453C18.3483 14.0015 18.2925 13.9427 18.2534 13.8739L17.309 12.4042L16.8571 12.8598V13.6779C16.8602 13.7875 16.8203 13.8942 16.7454 13.9767C16.7053 14.0145 16.6576 14.0441 16.6052 14.0635C16.5528 14.0829 16.4969 14.0917 16.4408 14.0894C16.3471 14.0913 16.2556 14.0619 16.1819 14.0061C16.1101 13.951 16.0615 13.8727 16.0448 13.7857C16.0398 13.7499 16.0398 13.7136 16.0448 13.6779L16.0752 10.7778Z" fill="black"/>
</svg>
