<svg width="26" height="25" viewBox="0 0 26 25" fill="none" xmlns="http://www.w3.org/2000/svg">
<ellipse cx="13.1046" cy="12.4276" rx="12.6476" ry="12.203" fill="black"/>
<rect x="6.78125" y="5.88281" width="13.0428" height="12.5843" fill="white"/>
<path d="M5.14986 4.43041C5.41311 4.41512 5.67708 4.41512 5.94033 4.43041H20.8368C20.9131 4.42065 20.9908 4.42755 21.064 4.45066C21.1372 4.47376 21.2041 4.51246 21.2597 4.56387C21.4573 4.75835 21.3862 5.04819 21.398 5.29224C21.398 10.1836 21.398 15.0775 21.398 19.9739C21.3965 20.0411 21.3802 20.1071 21.3503 20.1678C21.3204 20.2285 21.2775 20.2823 21.2245 20.3259C21.1716 20.3695 21.1096 20.4018 21.0428 20.4206C20.976 20.4395 20.9058 20.4445 20.8368 20.4353H5.28819C5.22447 20.438 5.16087 20.4279 5.10137 20.4057C5.04188 20.3835 4.9878 20.3497 4.94251 20.3063C4.89722 20.263 4.86172 20.2111 4.83823 20.1539C4.81473 20.0967 4.80376 20.0354 4.806 19.9739V4.89563C4.79784 4.79152 4.82778 4.68793 4.89061 4.60292C4.95344 4.51792 5.04518 4.45688 5.14986 4.43041ZM8.55285 8.4116C8.55285 11.081 8.55285 13.7504 8.55285 16.4198H11.6673C11.6673 15.0965 11.6475 13.7504 11.6673 12.4462C12.0072 12.9038 12.3195 13.3843 12.6673 13.8381C13.2483 14.7076 13.9043 15.5274 14.4616 16.4122C15.5051 16.4388 16.5485 16.4122 17.5959 16.4122C17.5959 16.2863 17.6156 16.1605 17.6156 16.0308C17.6156 13.4834 17.6156 10.9323 17.6156 8.40396C16.5801 8.40396 15.5485 8.40396 14.517 8.40396C14.517 9.73485 14.517 11.0733 14.517 12.3966C13.5565 11.081 12.6514 9.72724 11.6673 8.42305C10.6318 8.3811 9.58046 8.4116 8.55285 8.4116Z" fill="black"/>
<path d="M6.79881 5.18164H19.4132C19.7316 5.18164 20.0369 5.30368 20.2621 5.52091C20.4872 5.73813 20.6137 6.03275 20.6137 6.33996V18.5109C20.6137 18.6635 20.5826 18.8145 20.5221 18.9555C20.4615 19.0964 20.3729 19.2245 20.261 19.3324C20.1492 19.4403 20.0165 19.5258 19.8704 19.5842C19.7243 19.6426 19.5678 19.6726 19.4096 19.6726H6.79881C6.64069 19.6726 6.48411 19.6426 6.33803 19.5842C6.19194 19.5258 6.0592 19.4403 5.94739 19.3324C5.83558 19.2245 5.74689 19.0964 5.68638 18.9555C5.62587 18.8145 5.59473 18.6635 5.59473 18.5109V6.33996C5.59567 6.03244 5.72294 5.73783 5.94865 5.5207C6.17436 5.30357 6.48008 5.18164 6.79881 5.18164Z" fill="black"/>
<path d="M13.1405 6.11328C9.20555 6.11328 6.03223 8.56267 6.03223 11.5363C6.03223 13.4664 7.35233 15.1565 9.33249 16.1216L8.66228 18.5367C8.64964 18.5729 8.6477 18.6118 8.65667 18.649C8.66563 18.6862 8.68516 18.7202 8.71305 18.7473C8.75373 18.7819 8.80606 18.8011 8.86029 18.8012C8.90526 18.7977 8.94792 18.7806 8.98215 18.7522L11.8661 16.876C12.2918 16.9327 12.7209 16.9621 13.1506 16.9641C17.0805 16.9641 20.2589 14.5147 20.2589 11.5363C20.2589 8.55777 17.0703 6.11328 13.1405 6.11328Z" fill="white"/>
<path d="M8.52022 10.6793H7.74339C7.6471 10.682 7.55201 10.6582 7.46921 10.6107C7.43245 10.5885 7.40085 10.5592 7.37638 10.5246C7.35192 10.4901 7.33512 10.451 7.32705 10.4099C7.32458 10.3838 7.32458 10.3576 7.32705 10.3315C7.32463 10.2828 7.33445 10.2341 7.35566 10.1898C7.37687 10.1454 7.40886 10.1067 7.4489 10.0768C7.53742 10.0149 7.64426 9.98226 7.75354 9.98368H10.0942C10.1912 9.98039 10.287 10.0061 10.3684 10.0572C10.406 10.0784 10.4383 10.1075 10.4628 10.1422C10.4874 10.1769 10.5037 10.2165 10.5105 10.258C10.513 10.2825 10.513 10.3071 10.5105 10.3315C10.5129 10.381 10.5031 10.4303 10.4819 10.4755C10.4608 10.5206 10.4288 10.5602 10.3887 10.5911C10.3023 10.6529 10.1965 10.6841 10.0891 10.6793H9.33766V13.2561C9.34072 13.311 9.33191 13.3659 9.31181 13.4173C9.2917 13.4688 9.26074 13.5157 9.22088 13.5549C9.18266 13.5925 9.13672 13.622 9.086 13.6414C9.03528 13.6608 8.98092 13.6697 8.9264 13.6676C8.83104 13.6702 8.73771 13.6408 8.66238 13.5844C8.59066 13.5292 8.54198 13.4509 8.52529 13.3639C8.52028 13.3281 8.52028 13.2919 8.52529 13.2561L8.52022 10.6793Z" fill="black"/>
<path d="M10.7345 10.1751C10.7568 10.0945 10.8093 10.0247 10.8817 9.97916C10.9589 9.93693 11.0469 9.91656 11.1356 9.92037H11.3285C11.4226 9.91712 11.5158 9.93917 11.5976 9.98406C11.6844 10.0403 11.746 10.126 11.7703 10.2241L12.7857 12.992C12.8121 13.0642 12.8341 13.1378 12.8517 13.2124C12.8535 13.2434 12.8535 13.2745 12.8517 13.3055C12.8534 13.3532 12.8443 13.4008 12.825 13.4448C12.8058 13.4888 12.7767 13.5282 12.74 13.5602C12.7045 13.5954 12.6617 13.6231 12.6146 13.6417C12.5674 13.6602 12.5168 13.6692 12.4658 13.668C12.3875 13.6755 12.3089 13.6574 12.2426 13.6165C12.1763 13.5756 12.1261 13.5144 12.1003 13.4427L11.887 12.8401H10.5517L10.3385 13.4427C10.3132 13.5158 10.2625 13.5782 10.1949 13.6193C10.1273 13.6604 10.0471 13.6776 9.96781 13.668C9.88195 13.6702 9.79785 13.6443 9.72917 13.5945C9.66226 13.5432 9.61712 13.47 9.60224 13.3888C9.59955 13.3611 9.59955 13.3332 9.60224 13.3055C9.59352 13.2569 9.59352 13.2072 9.60224 13.1586C9.60224 13.1047 9.63778 13.0458 9.65809 12.992L10.7345 10.1751ZM11.2422 10.8169L10.7599 12.2865H11.7195L11.2422 10.8169Z" fill="black"/>
<path d="M12.9682 10.3319C12.9631 10.2219 13.0032 10.1145 13.0799 10.0331C13.1189 9.99511 13.1657 9.96545 13.2173 9.94604C13.2689 9.92664 13.3242 9.91786 13.3795 9.92033C13.4746 9.91926 13.5674 9.94856 13.6435 10.0036C13.714 10.0611 13.7609 10.141 13.7755 10.229C13.7805 10.2631 13.7805 10.2978 13.7755 10.3319V12.9087H15.1718C15.2686 12.9074 15.3637 12.9329 15.4459 12.9821C15.4829 13.0041 15.5147 13.0334 15.5392 13.068C15.5637 13.1026 15.5803 13.1417 15.5881 13.183C15.5881 13.183 15.5881 13.232 15.5881 13.2565C15.5905 13.3052 15.5807 13.3538 15.5595 13.3982C15.5383 13.4425 15.5063 13.4813 15.4663 13.5112C15.3777 13.5731 15.2709 13.6057 15.1616 13.6043H13.4455C13.3362 13.611 13.2275 13.5836 13.1358 13.5259C13.0537 13.4667 12.999 13.3787 12.9834 13.281C12.9797 13.2272 12.9797 13.1731 12.9834 13.1193L12.9682 10.3319Z" fill="black"/>
<path d="M15.6797 10.3315C15.6767 10.2219 15.7166 10.1152 15.7914 10.0327C15.8675 9.96599 15.9651 9.92659 16.0678 9.92124C16.1705 9.91588 16.2719 9.94487 16.355 10.0033C16.4271 10.0602 16.4757 10.1401 16.4921 10.2286C16.4946 10.2629 16.4946 10.2973 16.4921 10.3315V11.5317L17.7767 10.1012C17.8262 10.0524 17.8787 10.0067 17.9341 9.96411C17.9862 9.93415 18.046 9.91884 18.1067 9.91998C18.1954 9.91951 18.2822 9.94516 18.3555 9.99348C18.39 10.0159 18.4195 10.0448 18.4422 10.0785C18.4648 10.1122 18.4803 10.1499 18.4875 10.1894C18.4895 10.1991 18.4895 10.2092 18.4875 10.2189C18.485 10.2302 18.485 10.2418 18.4875 10.2531C18.4873 10.3047 18.4733 10.3553 18.4469 10.4001C18.4199 10.4475 18.3876 10.4919 18.3504 10.5323L17.5076 11.424L18.523 12.9426V12.9916C18.5758 13.0618 18.6169 13.1395 18.6449 13.2218V13.2463C18.6508 13.3031 18.6423 13.3604 18.6202 13.4133C18.5981 13.4662 18.563 13.5131 18.518 13.55C18.4333 13.6118 18.3296 13.6446 18.2235 13.6431C18.1529 13.6459 18.0829 13.6307 18.0204 13.599C17.9528 13.5553 17.897 13.4965 17.8579 13.4276L16.9135 11.9579L16.4616 12.4135V13.2316C16.4647 13.3412 16.4248 13.4479 16.3499 13.5304C16.3098 13.5683 16.2621 13.5978 16.2097 13.6172C16.1573 13.6366 16.1014 13.6454 16.0453 13.6431C15.9516 13.645 15.8601 13.6156 15.7864 13.5598C15.7146 13.5047 15.666 13.4264 15.6493 13.3394C15.6443 13.3037 15.6443 13.2674 15.6493 13.2316L15.6797 10.3315Z" fill="black"/>
</svg>
