<svg width="27" height="25" viewBox="0 0 27 25" fill="none" xmlns="http://www.w3.org/2000/svg">
<ellipse cx="13.5841" cy="12.4276" rx="12.6476" ry="12.203" fill="black"/>
<rect x="7.26074" y="5.88281" width="13.0428" height="12.5843" fill="white"/>
<path d="M5.62935 4.43041C5.89261 4.41512 6.15657 4.41512 6.41983 4.43041H21.3163C21.3926 4.42065 21.4703 4.42755 21.5435 4.45066C21.6167 4.47376 21.6836 4.51246 21.7392 4.56387C21.9368 4.75835 21.8657 5.04819 21.8775 5.29224C21.8775 10.1836 21.8775 15.0775 21.8775 19.9739C21.8759 20.0411 21.8597 20.1071 21.8298 20.1678C21.7999 20.2285 21.757 20.2823 21.704 20.3259C21.651 20.3695 21.5891 20.4018 21.5223 20.4206C21.4555 20.4395 21.3853 20.4445 21.3163 20.4353H5.76769C5.70396 20.438 5.64036 20.4279 5.58087 20.4057C5.52138 20.3835 5.46729 20.3497 5.422 20.3063C5.37672 20.263 5.34121 20.2111 5.31772 20.1539C5.29423 20.0967 5.28326 20.0354 5.2855 19.9739V4.89563C5.27734 4.79152 5.30728 4.68793 5.37011 4.60292C5.43294 4.51792 5.52468 4.45688 5.62935 4.43041ZM9.03234 8.4116C9.03234 11.081 9.03234 13.7504 9.03234 16.4198H12.1468C12.1468 15.0965 12.127 13.7504 12.1468 12.4462C12.4867 12.9038 12.7989 13.3843 13.1468 13.8381C13.7277 14.7076 14.3838 15.5274 14.9411 16.4122C15.9845 16.4388 17.028 16.4122 18.0754 16.4122C18.0754 16.2863 18.0951 16.1605 18.0951 16.0308C18.0951 13.4834 18.0951 10.9323 18.0951 8.40396C17.0596 8.40396 16.028 8.40396 14.9965 8.40396C14.9965 9.73485 14.9965 11.0733 14.9965 12.3966C14.036 11.081 13.1309 9.72724 12.1468 8.42305C11.1113 8.3811 10.06 8.4116 9.03234 8.4116Z" fill="black"/>
<path d="M7.2783 5.18164H19.8927C20.2111 5.18164 20.5164 5.30368 20.7416 5.52091C20.9667 5.73813 21.0932 6.03275 21.0932 6.33996V18.5109C21.0932 18.6635 21.0621 18.8145 21.0016 18.9555C20.941 19.0964 20.8523 19.2245 20.7405 19.3324C20.6287 19.4403 20.496 19.5258 20.3499 19.5842C20.2038 19.6426 20.0472 19.6726 19.8891 19.6726H7.2783C7.12018 19.6726 6.96361 19.6426 6.81752 19.5842C6.67143 19.5258 6.5387 19.4403 6.42689 19.3324C6.31508 19.2245 6.22638 19.0964 6.16587 18.9555C6.10536 18.8145 6.07422 18.6635 6.07422 18.5109V6.33996C6.07516 6.03244 6.20244 5.73783 6.42814 5.5207C6.65385 5.30357 6.95958 5.18164 7.2783 5.18164Z" fill="black"/>
<path d="M13.62 6.11328C9.68504 6.11328 6.51172 8.56267 6.51172 11.5363C6.51172 13.4664 7.83182 15.1565 9.81198 16.1216L9.14177 18.5367C9.12913 18.5729 9.12719 18.6118 9.13616 18.649C9.14513 18.6862 9.16465 18.7202 9.19254 18.7473C9.23322 18.7819 9.28555 18.8011 9.33979 18.8012C9.38475 18.7977 9.42742 18.7806 9.46164 18.7522L12.3456 16.876C12.7713 16.9327 13.2004 16.9621 13.6301 16.9641C17.56 16.9641 20.7384 14.5147 20.7384 11.5363C20.7384 8.55777 17.5498 6.11328 13.62 6.11328Z" fill="white"/>
<path d="M8.99971 10.6793H8.22288C8.12659 10.682 8.0315 10.6582 7.9487 10.6107C7.91194 10.5885 7.88034 10.5592 7.85587 10.5246C7.83141 10.4901 7.81461 10.451 7.80654 10.4099C7.80407 10.3838 7.80407 10.3576 7.80654 10.3315C7.80412 10.2828 7.81394 10.2341 7.83515 10.1898C7.85637 10.1454 7.88835 10.1067 7.92839 10.0768C8.01691 10.0149 8.12375 9.98226 8.23303 9.98368H10.5737C10.6707 9.98039 10.7665 10.0061 10.8479 10.0572C10.8855 10.0784 10.9177 10.1075 10.9423 10.1422C10.9669 10.1769 10.9832 10.2165 10.99 10.258C10.9925 10.2825 10.9925 10.3071 10.99 10.3315C10.9924 10.381 10.9826 10.4303 10.9614 10.4755C10.9403 10.5206 10.9083 10.5602 10.8682 10.5911C10.7818 10.6529 10.676 10.6841 10.5686 10.6793H9.81716V13.2561C9.82021 13.311 9.8114 13.3659 9.7913 13.4173C9.7712 13.4688 9.74023 13.5157 9.70038 13.5549C9.66216 13.5925 9.61621 13.622 9.56549 13.6414C9.51478 13.6608 9.46041 13.6697 9.40589 13.6676C9.31054 13.6702 9.2172 13.6408 9.14187 13.5844C9.07015 13.5292 9.02148 13.4509 9.00479 13.3639C8.99977 13.3281 8.99977 13.2919 9.00479 13.2561L8.99971 10.6793Z" fill="black"/>
<path d="M11.214 10.1751C11.2363 10.0945 11.2888 10.0247 11.3612 9.97916C11.4384 9.93693 11.5264 9.91656 11.6151 9.92037H11.808C11.9021 9.91712 11.9953 9.93917 12.0771 9.98406C12.1639 10.0403 12.2255 10.126 12.2498 10.2241L13.2652 12.992C13.2915 13.0642 13.3136 13.1378 13.3312 13.2124C13.333 13.2434 13.333 13.2745 13.3312 13.3055C13.3329 13.3532 13.3238 13.4008 13.3045 13.4448C13.2852 13.4888 13.2562 13.5282 13.2195 13.5602C13.1839 13.5954 13.1412 13.6231 13.0941 13.6417C13.0469 13.6602 12.9963 13.6692 12.9453 13.668C12.867 13.6755 12.7884 13.6574 12.7221 13.6165C12.6557 13.5756 12.6056 13.5144 12.5798 13.4427L12.3665 12.8401H11.0312L10.8179 13.4427C10.7927 13.5158 10.742 13.5782 10.6744 13.6193C10.6068 13.6604 10.5266 13.6776 10.4473 13.668C10.3614 13.6702 10.2773 13.6443 10.2087 13.5945C10.1418 13.5432 10.0966 13.47 10.0817 13.3888C10.079 13.3611 10.079 13.3332 10.0817 13.3055C10.073 13.2569 10.073 13.2072 10.0817 13.1586C10.0817 13.1047 10.1173 13.0458 10.1376 12.992L11.214 10.1751ZM11.7217 10.8169L11.2394 12.2865H12.199L11.7217 10.8169Z" fill="black"/>
<path d="M13.4477 10.3319C13.4426 10.2219 13.4827 10.1145 13.5594 10.0331C13.5984 9.99511 13.6452 9.96545 13.6968 9.94604C13.7484 9.92664 13.8036 9.91786 13.859 9.92033C13.9541 9.91926 14.0469 9.94856 14.123 10.0036C14.1935 10.0611 14.2403 10.141 14.255 10.229C14.26 10.2631 14.26 10.2978 14.255 10.3319V12.9087H15.6513C15.748 12.9074 15.8432 12.9329 15.9254 12.9821C15.9624 13.0041 15.9942 13.0334 16.0187 13.068C16.0432 13.1026 16.0598 13.1417 16.0676 13.183C16.0676 13.183 16.0676 13.232 16.0676 13.2565C16.07 13.3052 16.0602 13.3538 16.039 13.3982C16.0178 13.4425 15.9858 13.4813 15.9457 13.5112C15.8572 13.5731 15.7504 13.6057 15.6411 13.6043H13.925C13.8157 13.611 13.707 13.5836 13.6153 13.5259C13.5332 13.4667 13.4785 13.3787 13.4629 13.281C13.4592 13.2272 13.4592 13.1731 13.4629 13.1193L13.4477 10.3319Z" fill="black"/>
<path d="M16.1592 10.3315C16.1562 10.2219 16.1961 10.1152 16.2709 10.0327C16.347 9.96599 16.4446 9.92659 16.5473 9.92124C16.65 9.91588 16.7514 9.94487 16.8345 10.0033C16.9066 10.0602 16.9552 10.1401 16.9716 10.2286C16.9741 10.2629 16.9741 10.2973 16.9716 10.3315V11.5317L18.2562 10.1012C18.3057 10.0524 18.3582 10.0067 18.4136 9.96411C18.4657 9.93415 18.5255 9.91884 18.5862 9.91998C18.6749 9.91951 18.7617 9.94516 18.835 9.99348C18.8695 10.0159 18.899 10.0448 18.9217 10.0785C18.9443 10.1122 18.9598 10.1499 18.967 10.1894C18.969 10.1991 18.969 10.2092 18.967 10.2189C18.9645 10.2302 18.9645 10.2418 18.967 10.2531C18.9668 10.3047 18.9528 10.3553 18.9264 10.4001C18.8994 10.4475 18.8671 10.4919 18.8299 10.5323L17.9871 11.424L19.0025 12.9426V12.9916C19.0552 13.0618 19.0964 13.1395 19.1244 13.2218V13.2463C19.1303 13.3031 19.1218 13.3604 19.0997 13.4133C19.0776 13.4662 19.0425 13.5131 18.9974 13.55C18.9127 13.6118 18.8091 13.6446 18.703 13.6431C18.6324 13.6459 18.5624 13.6307 18.4999 13.599C18.4322 13.5553 18.3765 13.4965 18.3374 13.4276L17.393 11.9579L16.9411 12.4135V13.2316C16.9442 13.3412 16.9043 13.4479 16.8294 13.5304C16.7893 13.5683 16.7416 13.5978 16.6892 13.6172C16.6368 13.6366 16.5809 13.6454 16.5248 13.6431C16.4311 13.645 16.3396 13.6156 16.2658 13.5598C16.1941 13.5047 16.1455 13.4264 16.1288 13.3394C16.1237 13.3037 16.1237 13.2674 16.1288 13.2316L16.1592 10.3315Z" fill="black"/>
</svg>
