<svg width="26" height="26" viewBox="0 0 26 26" fill="none" xmlns="http://www.w3.org/2000/svg">
<ellipse cx="12.8028" cy="12.8739" rx="12.6476" ry="12.203" fill="black"/>
<rect x="6.47949" y="6.3291" width="13.0428" height="12.5843" fill="white"/>
<path d="M4.8481 4.8767C5.11136 4.86141 5.37532 4.86141 5.63858 4.8767H20.535C20.6114 4.86694 20.689 4.87384 20.7622 4.89695C20.8354 4.92005 20.9023 4.95875 20.9579 5.01016C21.1556 5.20464 21.0844 5.49447 21.0963 5.73853C21.0963 10.6299 21.0963 15.5238 21.0963 20.4202C21.0947 20.4874 21.0784 20.5534 21.0485 20.6141C21.0186 20.6748 20.9758 20.7286 20.9228 20.7722C20.8698 20.8157 20.8079 20.8481 20.741 20.8669C20.6742 20.8858 20.604 20.8908 20.535 20.8816H4.98644C4.92271 20.8843 4.85911 20.8742 4.79962 20.852C4.74013 20.8298 4.68604 20.796 4.64075 20.7526C4.59547 20.7093 4.55996 20.6574 4.53647 20.6002C4.51298 20.543 4.50201 20.4817 4.50425 20.4202V5.34192C4.49609 5.23781 4.52603 5.13422 4.58886 5.04921C4.65169 4.9642 4.74343 4.90317 4.8481 4.8767ZM8.25109 8.85789C8.25109 11.5273 8.25109 14.1967 8.25109 16.8661H11.3656C11.3656 15.5428 11.3458 14.1967 11.3656 12.8925C11.7055 13.3501 12.0177 13.8306 12.3655 14.2844C12.9465 15.1538 13.6026 15.9737 14.1599 16.8584C15.2033 16.8851 16.2467 16.8584 17.2941 16.8584C17.2941 16.7326 17.3139 16.6068 17.3139 16.4771C17.3139 13.9297 17.3139 11.3786 17.3139 8.85025C16.2783 8.85025 15.2468 8.85025 14.2152 8.85025C14.2152 10.1811 14.2152 11.5196 14.2152 12.8429C13.2548 11.5273 12.3497 10.1735 11.3656 8.86934C10.33 8.82739 9.2787 8.85789 8.25109 8.85789Z" fill="black"/>
<path d="M6.49705 5.62793H19.1114C19.4298 5.62793 19.7352 5.74997 19.9603 5.9672C20.1855 6.18442 20.312 6.47904 20.312 6.78625V18.9572C20.312 19.1097 20.2808 19.2608 20.2203 19.4018C20.1598 19.5427 20.0711 19.6708 19.9593 19.7787C19.8475 19.8865 19.7147 19.9721 19.5687 20.0305C19.4226 20.0889 19.266 20.1189 19.1079 20.1189H6.49705C6.33893 20.1189 6.18236 20.0889 6.03627 20.0305C5.89018 19.9721 5.75745 19.8865 5.64564 19.7787C5.53383 19.6708 5.44513 19.5427 5.38462 19.4018C5.32411 19.2608 5.29297 19.1097 5.29297 18.9572V6.78625C5.29391 6.47872 5.42119 6.18412 5.64689 5.96699C5.8726 5.74986 6.17833 5.62793 6.49705 5.62793Z" fill="black"/>
<path d="M12.8387 6.55957C8.90379 6.55957 5.73047 9.00896 5.73047 11.9825C5.73047 13.9127 7.05057 15.6028 9.03073 16.5678L8.36052 18.983C8.34788 19.0192 8.34594 19.058 8.35491 19.0952C8.36388 19.1324 8.3834 19.1665 8.41129 19.1936C8.45197 19.2282 8.5043 19.2474 8.55854 19.2475C8.6035 19.244 8.64617 19.2269 8.68039 19.1985L11.5643 17.3223C11.99 17.379 12.4191 17.4084 12.8489 17.4104C16.7787 17.4104 19.9571 14.961 19.9571 11.9825C19.9571 9.00406 16.7686 6.55957 12.8387 6.55957Z" fill="white"/>
<path d="M8.21846 11.1256H7.44163C7.34534 11.1283 7.25025 11.1045 7.16745 11.057C7.13069 11.0348 7.09909 11.0055 7.07462 10.9709C7.05016 10.9364 7.03336 10.8973 7.02529 10.8562C7.02282 10.8301 7.02282 10.8039 7.02529 10.7778C7.02287 10.729 7.03269 10.6804 7.0539 10.636C7.07512 10.5917 7.1071 10.553 7.14714 10.5231C7.23566 10.4612 7.3425 10.4286 7.45178 10.43H9.79243C9.88947 10.4267 9.98522 10.4523 10.0666 10.5035C10.1042 10.5247 10.1365 10.5538 10.1611 10.5885C10.1857 10.6232 10.202 10.6628 10.2088 10.7043C10.2112 10.7288 10.2112 10.7534 10.2088 10.7778C10.2112 10.8273 10.2014 10.8766 10.1802 10.9218C10.159 10.9669 10.127 11.0065 10.0869 11.0374C10.0005 11.0992 9.89474 11.1304 9.78735 11.1256H9.03591V13.7024C9.03896 13.7573 9.03015 13.8122 9.01005 13.8636C8.98995 13.9151 8.95898 13.9619 8.91913 14.0012C8.88091 14.0388 8.83496 14.0682 8.78424 14.0876C8.73353 14.1071 8.67916 14.116 8.62464 14.1139C8.52929 14.1165 8.43595 14.0871 8.36062 14.0307C8.2889 13.9755 8.24023 13.8972 8.22354 13.8102C8.21852 13.7744 8.21852 13.7382 8.22354 13.7024L8.21846 11.1256Z" fill="black"/>
<path d="M10.4327 10.6214C10.4551 10.5408 10.5075 10.471 10.58 10.4254C10.6572 10.3832 10.7452 10.3628 10.8338 10.3667H11.0268C11.1209 10.3634 11.214 10.3855 11.2959 10.4304C11.3826 10.4866 11.4442 10.5723 11.4685 10.6704L12.484 13.4382C12.5103 13.5105 12.5323 13.5841 12.55 13.6587C12.5517 13.6897 12.5517 13.7208 12.55 13.7518C12.5517 13.7995 12.5426 13.847 12.5233 13.891C12.504 13.935 12.475 13.9745 12.4383 14.0065C12.4027 14.0417 12.36 14.0694 12.3128 14.088C12.2656 14.1065 12.215 14.1155 12.1641 14.1143C12.0858 14.1218 12.0071 14.1037 11.9408 14.0628C11.8745 14.0219 11.8244 13.9607 11.7985 13.889L11.5853 13.2864H10.2499L10.0367 13.889C10.0115 13.9621 9.96075 14.0245 9.89316 14.0656C9.82558 14.1067 9.74531 14.1239 9.66605 14.1143C9.58019 14.1165 9.4961 14.0905 9.42742 14.0408C9.3605 13.9894 9.31536 13.9163 9.30048 13.8351C9.29779 13.8074 9.29779 13.7795 9.30048 13.7518C9.29177 13.7031 9.29177 13.6535 9.30048 13.6048C9.30048 13.551 9.33603 13.4921 9.35633 13.4382L10.4327 10.6214ZM10.9405 11.2632L10.4581 12.7328H11.4177L10.9405 11.2632Z" fill="black"/>
<path d="M12.6665 10.7782C12.6613 10.6682 12.7015 10.5608 12.7782 10.4793C12.8171 10.4414 12.864 10.4117 12.9156 10.3923C12.9672 10.3729 13.0224 10.3641 13.0777 10.3666C13.1728 10.3655 13.2656 10.3948 13.3417 10.4499C13.4123 10.5074 13.4591 10.5873 13.4737 10.6752C13.4787 10.7094 13.4787 10.744 13.4737 10.7782V13.355H14.87C14.9668 13.3537 15.0619 13.3792 15.1442 13.4284C15.1812 13.4504 15.2129 13.4797 15.2374 13.5143C15.2619 13.5489 15.2786 13.588 15.2864 13.6293C15.2864 13.6293 15.2864 13.6783 15.2864 13.7028C15.2888 13.7515 15.279 13.8001 15.2577 13.8445C15.2365 13.8888 15.2045 13.9276 15.1645 13.9575C15.076 14.0194 14.9691 14.052 14.8599 14.0506H13.1437C13.0344 14.0573 12.9258 14.0299 12.834 13.9722C12.7519 13.913 12.6972 13.825 12.6817 13.7273C12.678 13.6734 12.678 13.6194 12.6817 13.5656L12.6665 10.7782Z" fill="black"/>
<path d="M15.378 10.7778C15.3749 10.6682 15.4148 10.5615 15.4897 10.479C15.5658 10.4123 15.6634 10.3729 15.766 10.3675C15.8687 10.3622 15.9702 10.3912 16.0533 10.4496C16.1253 10.5065 16.1739 10.5864 16.1903 10.6749C16.1929 10.7091 16.1929 10.7436 16.1903 10.7778V11.978L17.4749 10.5475C17.5244 10.4987 17.577 10.453 17.6323 10.4104C17.6845 10.3804 17.7443 10.3651 17.8049 10.3663C17.8937 10.3658 17.9805 10.3914 18.0537 10.4398C18.0882 10.4622 18.1177 10.4911 18.1404 10.5248C18.1631 10.5585 18.1785 10.5962 18.1857 10.6357C18.1878 10.6454 18.1878 10.6555 18.1857 10.6652C18.1833 10.6765 18.1833 10.6881 18.1857 10.6994C18.1856 10.751 18.1716 10.8016 18.1451 10.8464C18.1182 10.8938 18.0858 10.9381 18.0486 10.9786L17.2058 11.8702L18.2213 13.3889V13.4378C18.274 13.508 18.3151 13.5858 18.3431 13.6681V13.6926C18.349 13.7494 18.3405 13.8067 18.3184 13.8596C18.2963 13.9125 18.2612 13.9594 18.2162 13.9963C18.1315 14.0581 18.0279 14.0909 17.9217 14.0894C17.8512 14.0922 17.7811 14.077 17.7186 14.0453C17.651 14.0015 17.5953 13.9427 17.5561 13.8739L16.6118 12.4042L16.1599 12.8598V13.6779C16.1629 13.7875 16.123 13.8942 16.0482 13.9767C16.0081 14.0145 15.9603 14.0441 15.9079 14.0635C15.8555 14.0829 15.7996 14.0917 15.7435 14.0894C15.6499 14.0913 15.5584 14.0619 15.4846 14.0061C15.4129 13.951 15.3642 13.8727 15.3475 13.7857C15.3425 13.7499 15.3425 13.7136 15.3475 13.6779L15.378 10.7778Z" fill="black"/>
</svg>
