<svg width="70" height="70" viewBox="0 0 70 70" fill="none" xmlns="http://www.w3.org/2000/svg">
<path d="M19.8862 49.0524C19.5933 49.3452 19.5933 49.8201 19.8862 50.113C20.1791 50.4059 20.6539 50.4059 20.9468 50.113L19.8862 49.0524ZM35.5302 35.5297C35.8231 35.2368 35.8231 34.7619 35.5302 34.469C35.2373 34.1761 34.7624 34.1761 34.4695 34.469L35.5302 35.5297ZM34.4695 34.469C34.1766 34.7619 34.1766 35.2368 34.4695 35.5297C34.7624 35.8226 35.2373 35.8226 35.5302 35.5297L34.4695 34.469ZM50.1135 20.9463C50.4064 20.6535 50.4064 20.1786 50.1135 19.8857C49.8206 19.5928 49.3457 19.5928 49.0528 19.8857L50.1135 20.9463ZM35.5302 34.469C35.2373 34.1761 34.7624 34.1761 34.4695 34.469C34.1766 34.7619 34.1766 35.2368 34.4695 35.5297L35.5302 34.469ZM49.0528 50.113C49.3457 50.4059 49.8206 50.4059 50.1135 50.113C50.4064 49.8201 50.4064 49.3452 50.1135 49.0524L49.0528 50.113ZM34.4695 35.5297C34.7624 35.8226 35.2373 35.8226 35.5302 35.5297C35.8231 35.2368 35.8231 34.7619 35.5302 34.469L34.4695 35.5297ZM20.9468 19.8857C20.6539 19.5928 20.1791 19.5928 19.8862 19.8857C19.5933 20.1786 19.5933 20.6535 19.8862 20.9463L20.9468 19.8857ZM20.9468 50.113L35.5302 35.5297L34.4695 34.469L19.8862 49.0524L20.9468 50.113ZM35.5302 35.5297L50.1135 20.9463L49.0528 19.8857L34.4695 34.469L35.5302 35.5297ZM34.4695 35.5297L49.0528 50.113L50.1135 49.0524L35.5302 34.469L34.4695 35.5297ZM35.5302 34.469L20.9468 19.8857L19.8862 20.9463L34.4695 35.5297L35.5302 34.469Z" fill="#969696"/>
</svg>
